<svg xmlns="http://www.w3.org/2000/svg" viewBox="0 0 389 93.14"><defs><style>.cls-1{fill:#000;}</style></defs><g id="katman_2" data-name="katman 2"><g id="katman_1-2" data-name="katman 1"><path class="cls-1" d="M55.57,27.24q0-8.5-6.74-11.52a36.18,36.18,0,0,0-14.93-3H11.74v2.41h.81q3.36,0,4.49,2a12.64,12.64,0,0,1,1.12,6.06V65.69H28.68V41.45h3.21l8,13.4q3.77,6.34,7.46,9a13.47,13.47,0,0,0,8,2.65,22.72,22.72,0,0,0,3.21-.24A8.67,8.67,0,0,0,61,65.69v-2q-5.22-.88-10-8.83L42.57,40.8A23,23,0,0,0,52,36.19Q55.57,33.1,55.57,27.24ZM41.16,35.55a11.46,11.46,0,0,1-7.66,2.69H28.68V16.48a27,27,0,0,1,5-.56,11.18,11.18,0,0,1,7.54,2.69q3.13,2.68,3.13,8.47C44.33,30.93,43.28,33.75,41.16,35.55Z"/><path class="cls-1" d="M102.55,53.73l-2.17-.8q-2,5.06-5.06,7.1a13.41,13.41,0,0,1-7.63,2H74V40H94.84V36.39H74V16.32H86.89q5,0,7.51,2.33c1.68,1.55,2.53,4,2.53,7.3h2.4V19.13q0-6.42-6.82-6.42H57.11v2.41h.8q3.38,0,4.5,2a12.64,12.64,0,0,1,1.12,6.06V65.69h29.7a6.36,6.36,0,0,0,4.5-1.37,10.93,10.93,0,0,0,2.49-4.25Z"/><path class="cls-1" d="M135,12.71H101.33v2.41h.81q3.36,0,4.49,2a12.62,12.62,0,0,1,1.13,6.06V65.69h10.43V40.4h17.66V36.79H118.19V16.32h11.16q5,0,7.51,2.29T139.38,26h2.41V19.13Q141.79,12.71,135,12.71Z"/><path class="cls-1" d="M181.76,60a13.46,13.46,0,0,1-7.63,2H160.4V40h20.87V36.39H160.4V16.32h12.93c3.31,0,5.82.78,7.5,2.33s2.53,4,2.53,7.3h2.41V19.13q0-6.42-6.82-6.42h-35.4v2.41h.8c2.25,0,3.74.65,4.49,2A12.62,12.62,0,0,1,150,23.14V65.69h29.7a6.35,6.35,0,0,0,4.49-1.37,10.69,10.69,0,0,0,2.49-4.25L189,53.73l-2.17-.8Q184.8,58,181.76,60Z"/><path class="cls-1" d="M226.74,54.85,218.31,40.8a23.05,23.05,0,0,0,9.44-4.61q3.57-3.09,3.57-8.95,0-8.5-6.75-11.52a36.14,36.14,0,0,0-14.93-3H187.49v2.41h.8q3.38,0,4.5,2a12.76,12.76,0,0,1,1.12,6.06V65.69h10.52V41.45h3.21l8,13.4q3.78,6.34,7.47,9a13.47,13.47,0,0,0,8,2.65,22.94,22.94,0,0,0,3.21-.24,8.78,8.78,0,0,0,2.33-.56v-2Q231.48,62.8,226.74,54.85Zm-9.83-19.3a11.49,11.49,0,0,1-7.67,2.69h-4.81V16.48a26.91,26.91,0,0,1,5-.56A11.23,11.23,0,0,1,217,18.61q3.13,2.68,3.13,8.47T216.91,35.55Z"/><path class="cls-1" d="M292.25,65.61v-2q-5.29-.56-8.35-8l-18-42.86h-3.61l-23.68,53h4.17l6.58-14.61h21.36l1.84,4.49c1.72,4.13,3.93,6.9,6.66,8.31A19.54,19.54,0,0,0,288.4,66,14.78,14.78,0,0,0,292.25,65.61ZM251.07,47.47l9.31-20.95,8.83,21Z"/><path class="cls-1" d="M336.29,65.93V12.71h-4V49.63L304.67,17.52a11.56,11.56,0,0,0-4.78-3.65,19.79,19.79,0,0,0-7.35-1.16h-5.61v2.41h.4q3.93,0,5.58,1.92a7.94,7.94,0,0,1,1.64,5.3V65.69h4V26l34,40Z"/><path class="cls-1" d="M366.74,38.32l-9.87-5.86a30.6,30.6,0,0,1-6.38-4.62,7.19,7.19,0,0,1-2-5.18,7,7,0,0,1,2.53-5.7,10.47,10.47,0,0,1,6.87-2.08q6.25,0,9.95,3.61t5.06,11.8h2.24V20.9a6.51,6.51,0,0,0-2.64-5.1,18.13,18.13,0,0,0-6.83-3.37A31.94,31.94,0,0,0,357,11.26q-8.26,0-13.12,3.7a11.92,11.92,0,0,0-4.86,10,13.65,13.65,0,0,0,2.29,7.87,23.24,23.24,0,0,0,7.66,6.5l9.88,5.94a29.51,29.51,0,0,1,6.26,4.9,7.88,7.88,0,0,1,2,5.45,6.72,6.72,0,0,1-2.73,5.78,12.2,12.2,0,0,1-7.39,2q-6.9,0-10.76-3.61t-5-11.8H339v9.39a6.49,6.49,0,0,0,2.65,5.1,18.23,18.23,0,0,0,6.82,3.37,32.33,32.33,0,0,0,8.67,1.16q9.63,0,14.89-4a13,13,0,0,0,5.26-11,11.53,11.53,0,0,0-2.45-7.42A28.85,28.85,0,0,0,366.74,38.32Z"/><path class="cls-1" d="M92.46,91.3a4.48,4.48,0,0,1-.4-2.14v-15H88.37v8.37H80.71V77.81a8.43,8.43,0,0,0-.23-2.23,1.87,1.87,0,0,0-.76-1.12,2.91,2.91,0,0,0-1.56-.34H74.75V75H75a1.65,1.65,0,0,1,1.59.7,4.36,4.36,0,0,1,.4,2.14v15h3.69V83.77h7.66v5.39a8.58,8.58,0,0,0,.23,2.26,1.77,1.77,0,0,0,.77,1.1,3,3,0,0,0,1.56.33h3.4V92h-.28A1.67,1.67,0,0,1,92.46,91.3Z"/><path class="cls-1" d="M111.08,90a4.24,4.24,0,0,1-1,1.28,2.22,2.22,0,0,1-1.54.57,2,2,0,0,1-1.82-.9,5.63,5.63,0,0,1-.6-3V83.2a8.56,8.56,0,0,0-.22-2.23,1.88,1.88,0,0,0-.77-1.12,2.91,2.91,0,0,0-1.56-.34h-3.41v.85h.29a1.67,1.67,0,0,1,1.59.7,4.53,4.53,0,0,1,.39,2.14v4.71a5.39,5.39,0,0,0,1.28,4,5.52,5.52,0,0,0,4,1.25,4.64,4.64,0,0,0,3.54-1.57h.15l1,1.28h2.41V79.51h-3.69Z"/><path class="cls-1" d="M133.82,90,130,85l2.76-3.35a4.25,4.25,0,0,1,1.3-1.08,3.34,3.34,0,0,1,1.53-.34v-.74h-.56a4.36,4.36,0,0,0-2.27.51A7.38,7.38,0,0,0,131,81.7l-3.44,4.2V77.81a8.51,8.51,0,0,0-.22-2.23,1.92,1.92,0,0,0-.77-1.12,2.91,2.91,0,0,0-1.56-.34h-3.41V75h.29a1.67,1.67,0,0,1,1.59.7,4.5,4.5,0,0,1,.39,2.14v15h3.69V87.29l2.73,3.57a5.61,5.61,0,0,0,1.94,1.75,5,5,0,0,0,2.29.53,7.76,7.76,0,0,0,1.12-.09,3.09,3.09,0,0,0,.84-.2v-.68A5.15,5.15,0,0,1,133.82,90Z"/><path class="cls-1" d="M152.81,90a4.57,4.57,0,0,1-1,1.28,2.25,2.25,0,0,1-1.55.57,2,2,0,0,1-1.82-.9,5.74,5.74,0,0,1-.59-3V83.2a8.49,8.49,0,0,0-.23-2.23,1.88,1.88,0,0,0-.77-1.12,2.87,2.87,0,0,0-1.56-.34h-3.4v.85h.28a1.65,1.65,0,0,1,1.59.7,4.39,4.39,0,0,1,.4,2.14v4.71a5.35,5.35,0,0,0,1.28,4,5.49,5.49,0,0,0,4,1.25A4.68,4.68,0,0,0,153,91.57h.14l1,1.28h2.42V79.51h-3.69Z"/><path class="cls-1" d="M175.54,90l-3.77-5,2.75-3.35a4.37,4.37,0,0,1,1.3-1.08,3.38,3.38,0,0,1,1.54-.34v-.74h-.57a4.39,4.39,0,0,0-2.27.51,7.56,7.56,0,0,0-1.82,1.68l-3.43,4.2V77.81a8.43,8.43,0,0,0-.23-2.23,1.88,1.88,0,0,0-.77-1.12,2.91,2.91,0,0,0-1.56-.34h-3.4V75h.28a1.65,1.65,0,0,1,1.59.7,4.36,4.36,0,0,1,.4,2.14v15h3.69V87.29L172,90.86a5.72,5.72,0,0,0,1.95,1.75,5,5,0,0,0,2.28.53,7.65,7.65,0,0,0,1.12-.09,3,3,0,0,0,.84-.2v-.68A5.19,5.19,0,0,1,175.54,90Z"/><path class="cls-1" d="M209.18,83.17a5.68,5.68,0,0,0,2.9-1.63,3.57,3.57,0,0,0,1-2.45,3.88,3.88,0,0,0-2.4-4,15.72,15.72,0,0,0-6-1h-7.67V75h.29a1.67,1.67,0,0,1,1.59.7,4.5,4.5,0,0,1,.39,2.14v15h6.25a14,14,0,0,0,6-1.12A4.1,4.1,0,0,0,214,87.66Q214,83.66,209.18,83.17ZM203,75.45a8.91,8.91,0,0,1,1.71-.2,5.37,5.37,0,0,1,3.13.87,3.16,3.16,0,0,1,1.27,2.82,3.41,3.41,0,0,1-1.07,2.8,4.47,4.47,0,0,1-2.91.87H203Zm5.72,15.24a5.45,5.45,0,0,1-3.59,1,7.77,7.77,0,0,1-2.13-.29V83.88h2.13q4.83,0,4.83,3.92A3.52,3.52,0,0,1,208.76,90.69Z"/><path class="cls-1" d="M232.17,77.81a1.74,1.74,0,0,0,0-2.27,1.52,1.52,0,0,0-1.17-.46,1.49,1.49,0,0,0-1.16.46,1.71,1.71,0,0,0,0,2.27,1.51,1.51,0,0,0,1.16.45A1.55,1.55,0,0,0,232.17,77.81Z"/><path class="cls-1" d="M227.06,77.81a1.74,1.74,0,0,0,0-2.27,1.51,1.51,0,0,0-1.17-.46,1.49,1.49,0,0,0-1.16.46,1.71,1.71,0,0,0,0,2.27,1.51,1.51,0,0,0,1.16.45A1.54,1.54,0,0,0,227.06,77.81Z"/><path class="cls-1" d="M231.26,90a4.4,4.4,0,0,1-1,1.28,2.23,2.23,0,0,1-1.55.57,2,2,0,0,1-1.81-.9,5.63,5.63,0,0,1-.6-3V83.2a8.08,8.08,0,0,0-.23-2.23,1.87,1.87,0,0,0-.76-1.12,2.91,2.91,0,0,0-1.56-.34h-3.41v.85h.28a1.65,1.65,0,0,1,1.59.7,4.39,4.39,0,0,1,.4,2.14v4.71a5.39,5.39,0,0,0,1.28,4,5.51,5.51,0,0,0,4,1.25,4.66,4.66,0,0,0,3.55-1.57h.14l1,1.28H235V79.51h-3.69Z"/><path class="cls-1" d="M253.14,79.79a3.43,3.43,0,0,0-2-.56,5.28,5.28,0,0,0-3.58,1.33,1.77,1.77,0,0,0-.86-.81,3.93,3.93,0,0,0-1.52-.24h-2.81v.85h.28a1.63,1.63,0,0,1,1.58.7,4.67,4.67,0,0,1,.38,2.14v9.65h3.69V83.31a13.45,13.45,0,0,0-.11-1.36,3.43,3.43,0,0,1,2.52-.88,2.05,2.05,0,0,1,1.14.33,2.92,2.92,0,0,1,.82.78l1.45-1.11s-.08-.17-.23-.47A2.42,2.42,0,0,0,253.14,79.79Z"/><path class="cls-1" d="M271.07,80.15a7.58,7.58,0,0,0-7.24,0,6.2,6.2,0,0,0-2.37,2.5,8,8,0,0,0,0,7.07,6.17,6.17,0,0,0,2.37,2.49,7.51,7.51,0,0,0,7.24,0,6.17,6.17,0,0,0,2.37-2.49,8,8,0,0,0,0-7.07A6.2,6.2,0,0,0,271.07,80.15ZM269.66,90.3a2.35,2.35,0,0,1-4.43,0,11.52,11.52,0,0,1,0-8.23,2.35,2.35,0,0,1,4.43,0,11.38,11.38,0,0,1,0,8.23Z"/><path class="cls-1" d="M289.33,85.24l-1.7-.71a5.5,5.5,0,0,1-1.52-.92,1.55,1.55,0,0,1-.5-1.18,1.77,1.77,0,0,1,.6-1.4A2.69,2.69,0,0,1,288,80.5a3.41,3.41,0,0,1,2.52.9,4.17,4.17,0,0,1,1.17,2.37h1a17.05,17.05,0,0,0-.11-2.19,2,2,0,0,0-.57-1.19c-.83-.77-2.36-1.16-4.57-1.16a6.92,6.92,0,0,0-3.9,1,3.32,3.32,0,0,0-.58,5A8.39,8.39,0,0,0,285.7,87l1.48.63a10.15,10.15,0,0,1,1.94,1.08,1.48,1.48,0,0,1,.61,1.22c0,1.29-1,1.93-2.84,1.93a3.41,3.41,0,0,1-2.52-.9,4.17,4.17,0,0,1-1.17-2.37h-1a17.21,17.21,0,0,0,.11,2.18,2,2,0,0,0,.57,1.2c.83.78,2.36,1.17,4.57,1.17a8,8,0,0,0,4.21-1,3.32,3.32,0,0,0,.69-5.14A10.07,10.07,0,0,0,289.33,85.24Z"/><path class="cls-1" d="M310.56,90a4.36,4.36,0,0,1-1,1.28,2.27,2.27,0,0,1-1.55.57,2,2,0,0,1-1.82-.9,5.74,5.74,0,0,1-.59-3V83.2a8.49,8.49,0,0,0-.23-2.23,1.88,1.88,0,0,0-.77-1.12,2.91,2.91,0,0,0-1.56-.34h-3.4v.85h.28a1.67,1.67,0,0,1,1.59.7,4.51,4.51,0,0,1,.4,2.14v4.71a5.39,5.39,0,0,0,1.27,4,5.54,5.54,0,0,0,4,1.25,4.68,4.68,0,0,0,3.55-1.57h.14l1,1.28h2.41V79.51h-3.69Z"/><rect class="cls-1" x="11.74" y="84.68" width="54.77" height="2.57"/><polygon class="cls-1" points="386.43 0 2.57 0 0 0 0 2.57 0 84.76 2.57 84.76 2.57 2.57 386.43 2.57 386.43 84.76 389 84.76 389 2.57 389 0 386.43 0"/><rect class="cls-1" x="322.49" y="84.68" width="54.77" height="2.57"/></g></g></svg>